<svg width="900" height="601" viewBox="0 0 900 601" fill="none" xmlns="http://www.w3.org/2000/svg">
<rect width="900" height="601" fill="white"/>
<g clip-path="url(#clip0_1_2)">
<path d="M900 0H0V600H900V0Z" fill="#001220"/>
<g filter="url(#filter0_d_1_2)">
<path d="M0 355L21.5 358.7C43 362.3 86 369.7 128.8 382.8C171.7 396 214.3 415 257.2 423.2C300 431.3 343 428.7 385.8 429.5C428.7 430.3 471.3 434.7 514.2 428.8C557 423 600 407 642.8 394.3C685.7 381.7 728.3 372.3 771.2 375.3C814 378.3 857 393.7 878.5 401.3L900 409V601H878.5C857 601 814 601 771.2 601C728.3 601 685.7 601 642.8 601C600 601 557 601 514.2 601C471.3 601 428.7 601 385.8 601C343 601 300 601 257.2 601C214.3 601 171.7 601 128.8 601C86 601 43 601 21.5 601H0V355Z" fill="#FA7268"/>
<path d="M0 420L21.5 417.3C43 414.7 86 409.3 128.8 414.7C171.7 420 214.3 436 257.2 447.3C300 458.7 343 465.3 385.8 466C428.7 466.7 471.3 461.3 514.2 452.8C557 444.3 600 432.7 642.8 426.7C685.7 420.7 728.3 420.3 771.2 418.3C814 416.3 857 412.7 878.5 410.8L900 409V601H878.5C857 601 814 601 771.2 601C728.3 601 685.7 601 642.8 601C600 601 557 601 514.2 601C471.3 601 428.7 601 385.8 601C343 601 300 601 257.2 601C214.3 601 171.7 601 128.8 601C86 601 43 601 21.5 601H0V420Z" fill="#EF5F67"/>
<path d="M0 510L21.5 505.8C43 501.7 86 493.3 128.8 490.3C171.7 487.3 214.3 489.7 257.2 486.8C300 484 343 476 385.8 470.3C428.7 464.7 471.3 461.3 514.2 464.5C557 467.7 600 477.3 642.8 479C685.7 480.7 728.3 474.3 771.2 473C814 471.7 857 475.3 878.5 477.2L900 479V601H878.5C857 601 814 601 771.2 601C728.3 601 685.7 601 642.8 601C600 601 557 601 514.2 601C471.3 601 428.7 601 385.8 601C343 601 300 601 257.2 601C214.3 601 171.7 601 128.8 601C86 601 43 601 21.5 601H0V510Z" fill="#E34C67"/>
<path d="M0 482L21.5 491C43 500 86 518 128.8 520.5C171.7 523 214.3 510 257.2 501.5C300 493 343 489 385.8 490.8C428.7 492.7 471.3 500.3 514.2 499.8C557 499.3 600 490.7 642.8 488C685.7 485.3 728.3 488.7 771.2 494.8C814 501 857 510 878.5 514.5L900 519V601H878.5C857 601 814 601 771.2 601C728.3 601 685.7 601 642.8 601C600 601 557 601 514.2 601C471.3 601 428.7 601 385.8 601C343 601 300 601 257.2 601C214.3 601 171.7 601 128.8 601C86 601 43 601 21.5 601H0V482Z" fill="#D53867"/>
<path d="M0 548L21.5 551.2C43 554.3 86 560.7 128.8 565.2C171.7 569.7 214.3 572.3 257.2 573.8C300 575.3 343 575.7 385.8 576.2C428.7 576.7 471.3 577.3 514.2 577.5C557 577.7 600 577.3 642.8 572.7C685.7 568 728.3 559 771.2 559.5C814 560 857 570 878.5 575L900 580V611H878.5C857 611 814 611 771.2 611C728.3 611 685.7 611 642.8 611C600 611 557 611 514.2 611C471.3 611 428.7 611 385.8 611C343 611 300 611 257.2 611C214.3 611 171.7 611 128.8 611C86 611 43 611 21.5 611H0V548Z" fill="#C62368"/>
</g>
<g filter="url(#filter1_d_1_2)">
<circle cx="714" cy="160" r="92" fill="#D9D9D9" fill-opacity="0.08"/>
<circle cx="713.5" cy="159.5" r="81.5" fill="#D9D9D9" fill-opacity="0.25"/>
<circle cx="714" cy="160" r="71" fill="#D9D9D9" fill-opacity="0.39"/>
<circle cx="713.5" cy="159.5" r="60.5" fill="#D9D9D9" fill-opacity="0.55"/>
<circle cx="714" cy="160" r="50" fill="#D9D9D9" fill-opacity="0.68"/>
<circle cx="713.5" cy="159.5" r="39.5" fill="#D9D9D9"/>
</g>
</g>
<defs>
<filter id="filter0_d_1_2" x="-4" y="355" width="908" height="264" filterUnits="userSpaceOnUse" color-interpolation-filters="sRGB">
<feFlood flood-opacity="0" result="BackgroundImageFix"/>
<feColorMatrix in="SourceAlpha" type="matrix" values="0 0 0 0 0 0 0 0 0 0 0 0 0 0 0 0 0 0 127 0" result="hardAlpha"/>
<feOffset dy="4"/>
<feGaussianBlur stdDeviation="2"/>
<feComposite in2="hardAlpha" operator="out"/>
<feColorMatrix type="matrix" values="0 0 0 0 0 0 0 0 0 0 0 0 0 0 0 0 0 0 0.25 0"/>
<feBlend mode="normal" in2="BackgroundImageFix" result="effect1_dropShadow_1_2"/>
<feBlend mode="normal" in="SourceGraphic" in2="effect1_dropShadow_1_2" result="shape"/>
</filter>
<filter id="filter1_d_1_2" x="618" y="68" width="192" height="192" filterUnits="userSpaceOnUse" color-interpolation-filters="sRGB">
<feFlood flood-opacity="0" result="BackgroundImageFix"/>
<feColorMatrix in="SourceAlpha" type="matrix" values="0 0 0 0 0 0 0 0 0 0 0 0 0 0 0 0 0 0 127 0" result="hardAlpha"/>
<feOffset dy="4"/>
<feGaussianBlur stdDeviation="2"/>
<feComposite in2="hardAlpha" operator="out"/>
<feColorMatrix type="matrix" values="0 0 0 0 0 0 0 0 0 0 0 0 0 0 0 0 0 0 0.25 0"/>
<feBlend mode="normal" in2="BackgroundImageFix" result="effect1_dropShadow_1_2"/>
<feBlend mode="normal" in="SourceGraphic" in2="effect1_dropShadow_1_2" result="shape"/>
</filter>
<clipPath id="clip0_1_2">
<rect width="900" height="600" fill="white"/>
</clipPath>
</defs>
</svg>
